ply
format ascii 1.0
comment Created in Blender version 4.5.3 LTS
element vertex 247
property float x
property float y
property float z
property uchar red
property uchar green
property uchar blue
property uchar alpha
property float s
property float t
element face 166
property list uchar uint vertex_indices
end_header
250.24185 254.26173 7.7713456 0 0 254 255 0.01611165 0.4838398
250.71532 251.77643 7.671095 0 0 254 255 0.01597515 0.4862477
249.68028 250.37715 2.8767254 0 0 254 255 0.009660313 0.4845961
249.1123 252.47786 2.2572005 0 0 254 255 0.01015468 0.4826494
250.05424 250.07727 1.2960484 0 0 254 255 0.9867002 0.9712958
249.68028 250.37715 2.8767254 0 0 254 255 0.9850621 0.9735414
252.41255 250.19139 2.4892857 0 0 254 255 0.9842812 0.9710314
250.71532 251.77643 7.671095 0 0 254 255 0.9787202 0.9758103
254.39787 251.77097 8.1864605 0 0 254 255 0.9781508 0.9723559
248.05725 246.89212 -0.16971214 0 0 254 255 0.9899578 0.9674135
254.04268 248.72482 2.26603 0 0 254 255 0.9838348 0.9691081
254.86916 -249.67133 2.26583 0 0 254 255 0.9832839 0.496601
248.05725 -248.32753 -0.12741518 0 0 254 255 0.9901152 0.4978382
247.80528 253.304 1.9178452 0 0 254 255 0.01029118 0.4811872
249.02858 255.2811 7.7351446 0 0 254 255 0.01610058 0.4823334
250.05424 250.07727 1.2960484 0 0 254 255 0.007748031 0.4835877
248.05725 246.89212 -0.16971214 0 0 254 255 0.00390625 0.4814455
255.18376 251.26338 8.091417 0 0 254 255 0.9782246 0.9714754
-248.05725 -248.32753 -0.12741518 0 0 254 255 0.4742993 0.494994
-248.05725 246.89212 -0.16971214 0 0 254 255 0.4745441 0.964723
248.05725 246.89212 -0.16971214 0 0 254 255 0.00390625 0.964723
248.05725 -248.32753 -0.12741518 0 0 254 255 0.00406366 0.4951477
250.03311 -252.1181 1.9077243 0 0 254 255 0.9922281 0.4806351
250.6525 -250.68546 2.8765244 0 0 254 255 0.9915972 0.4823494
250.91415 -251.4075 7.6708927 0 0 254 255 0.9863055 0.4829396
250.27043 -253.39157 7.771142 0 0 254 255 0.9861813 0.4809646
250.80202 -251.23242 1.2958472 0 0 254 255 0.9862464 0.4944047
253.239 -251.13788 2.4890847 0 0 254 255 0.9837241 0.4947392
250.6525 -250.68546 2.8765244 0 0 254 255 0.9842923 0.4922846
250.91415 -251.4075 7.6708927 0 0 254 255 0.9780758 0.4898976
255.40778 -251.83406 8.186257 0 0 254 255 0.9774855 0.4941403
-248.72604 -252.94429 1.5683686 0 0 254 255 0.9920424 0.007679164
248.72604 -252.94429 1.5683686 0 0 254 255 0.9921973 0.4791606
249.05716 -254.41092 7.7349405 0 0 254 255 0.9861936 0.4794656
-249.05716 -254.41092 7.7349405 0 0 254 255 0.9860387 0.007380331
-248.05725 -248.32753 -0.12741518 0 0 254 255 0.9967056 0.008300194
248.05725 -248.32753 -0.12741518 0 0 254 255 0.9968594 0.4785359
256.62167 -250.58955 8.091215 0 0 254 255 0.9775433 0.4957759
250.80202 -251.23242 1.2958472 0 0 254 255 0.9932685 0.4813422
254.42592 250.25403 250.36478 0 0 254 255 0.7483991 0.9707695
254.46251 249.64214 252.86577 0 0 254 255 0.7463663 0.970114
254.48561 246.9982 253.18268 0 0 254 255 0.7457305 0.9677098
250.60156 252.79161 254.95654 0 0 254 255 0.2513506 0.4835262
250.35167 249.93333 253.2911 0 0 254 255 0.2524918 0.4862477
250.60188 251.51884 251.03215 0 0 254 255 0.2469862 0.4862477
250.24185 254.26161 250.93188 0 0 254 255 0.2467919 0.4835262
250.47415 246.89757 257.35492 0 0 254 255 0.2583443 0.4832975
250.53787 250.2245 256.91498 0 0 254 255 0.2547239 0.483402
249.36374 250.63483 257.8593 0 0 254 255 0.2548186 0.482005
249.4329 246.89204 258.35556 0 0 254 255 0.2583701 0.4819497
250.39113 246.9242 254.19711 0 0 254 255 0.7414657 0.967684
254.1619 246.93513 253.82826 0 0 254 255 0.7450467 0.967657
254.12088 250.17213 253.55186 0 0 254 255 0.7458867 0.9706379
250.35167 249.93333 253.2911 0 0 254 255 0.7436239 0.9722378
249.22264 -252.0938 259.5196 0 0 254 255 0.7317687 0.4803067
249.78058 -252.02847 258.6011 0 0 254 255 0.7317429 0.4813176
250.60188 251.51884 251.03215 0 0 254 255 0.7476403 0.9749777
253.8867 251.3051 250.51677 0 0 254 255 0.7482318 0.9718812
249.02858 255.281 250.9681 0 0 254 255 0.2467661 0.4819694
249.29456 253.61783 255.2959 0 0 254 255 0.2511219 0.482069
167.4852 -254.26505 252.81668 0 0 254 255 0.7538139 0.4024947
248.74702 -255.28117 252.2326 0 0 254 255 0.754596 0.4796045
81.64917 -247.24593 258.66653 0 0 254 255 0.7269628 0.3221936
-249.4329 246.89204 258.35556 0 0 254 255 0.2583676 0.008533849
-81.64917 -247.24593 258.9705 0 0 254 255 0.7267808 0.1679874
250.31737 -253.11201 252.68787 0 0 254 255 0.7540487 0.4821489
249.43802 -251.89304 253.38492 0 0 254 255 0.7525386 0.4825547
248.72604 -252.67145 253.25388 0 0 254 255 0.7525066 0.4815426
249.64618 -253.93764 252.69249 0 0 254 255 0.7540352 0.481138
253.17809 -252.07404 253.0931 0 0 254 255 0.7448955 0.4934885
249.43802 -251.89304 253.38492 0 0 254 255 0.7440715 0.4899419
250.31737 -253.11201 252.68787 0 0 254 255 0.7455116 0.4905826
252.53699 -252.86627 252.46304 0 0 254 255 0.7457379 0.492731
248.74619 -254.62436 253.00342 0 0 254 255 0.7536355 0.4796045
248.72604 -252.67145 253.25388 0 0 254 255 0.7517688 0.4795836
167.5895 -252.07874 253.24255 0 0 254 255 0.7516163 0.4026066
167.68463 -253.73999 253.2107 0 0 254 255 0.7531916 0.4026988
250.59932 -253.50217 251.9883 0 0 254 255 0.7548419 0.4820481
249.96017 -254.26215 252.1226 0 0 254 255 0.7547091 0.4811061
170.02783 -251.81389 259.5197 0 0 254 255 0.7314724 0.4056281
169.60059 -252.386 258.9831 0 0 254 255 0.7322164 0.4052297
249.27086 -252.83766 258.60526 0 0 254 255 0.7328226 0.4804002
249.43802 -251.89304 253.38492 0 0 254 255 0.7414657 0.494631
253.17809 -252.07404 253.0931 0 0 254 255 0.7450234 0.4944662
252.67235 -253.31516 251.90756 0 0 254 255 0.7463847 0.4927384
250.59932 -253.50217 251.9883 0 0 254 255 0.7462999 0.4907658
253.75304 -252.58414 252.572 0 0 254 255 0.7457588 0.4939792
248.74619 -254.62436 253.00342 0 0 254 255 0.7537081 0.4800645
250.39113 246.9242 254.19711 0 0 254 255 0.2582828 0.4862477
249.43802 -251.89304 253.38492 0 0 254 255 0.7315843 0.4862477
248.72604 -252.67145 253.25388 0 0 254 255 0.7378757 0.4799919
167.5895 -252.07874 253.24255 0 0 254 255 0.7376679 0.4033592
249.43802 -251.89304 253.38492 0 0 254 255 0.7376556 0.4810876
80.59082 -252.13342 258.66663 0 0 254 255 0.01181544 0.9789609
81.08971 -252.74384 257.98737 0 0 254 255 0.01135059 0.9780902
82.2332 -247.75754 257.93463 0 0 254 255 0.01620078 0.9780139
81.64917 -247.24593 258.66653 0 0 254 255 0.01655741 0.9789609
-81.08971 -252.74384 257.98737 0 0 254 255 0.7325152 0.1685199
-81.13205 -252.57858 252.19673 0 0 254 255 0.7380098 0.1684953
81.13205 -252.57858 252.19673 0 0 254 255 0.7379544 0.3217361
81.08971 -252.74384 257.98737 0 0 254 255 0.7324611 0.3216783
82.2332 -247.75754 257.93463 0 0 254 255 0.7278126 0.3227421
167.76962 -247.08258 257.86603 0 0 254 255 0.7279429 0.4034662
168.17749 -246.2666 259.5193 0 0 254 255 0.7261967 0.4038523
84.63661 -249.33606 256.59164 0 0 254 255 0.729795 0.3250024
164.69559 -249.46515 256.26767 0 0 254 255 0.730641 0.4005541
84.63661 -249.33606 256.59164 0 0 254 255 0.7461094 0.3238513
84.531555 -254.10924 255.79497 0 0 254 255 0.7507001 0.3237726
164.61403 -254.12569 256.30444 0 0 254 255 0.7502168 0.3997769
164.69559 -249.46515 256.26767 0 0 254 255 0.745797 0.399831
170.02783 -251.81389 259.5197 0 0 254 255 0.07502734 0.9783878
168.17749 -246.2666 259.5193 0 0 254 255 0.0759595 0.9729215
167.76962 -247.08258 257.86603 0 0 254 255 0.07751638 0.9738069
169.60059 -252.386 258.9831 0 0 254 255 0.07569019 0.9789154
167.5895 -252.07874 253.24255 0 0 254 255 0.08146515 0.9789154
167.5895 -252.07874 253.24255 0 0 254 255 0.1252487 0.976687
164.69559 -249.46515 256.26767 0 0 254 255 0.1205694 0.9767362
164.61403 -254.12569 256.30444 0 0 254 255 0.1228039 0.9729215
167.68463 -253.73999 253.2107 0 0 254 255 0.1261427 0.9753859
164.69559 -249.46515 256.26767 0 0 254 255 0.08147991 0.9742349
84.63661 -249.33606 256.59164 0 0 254 255 0.01521943 0.9751695
81.13205 -252.57858 252.19673 0 0 254 255 0.09092017 0.9765296
81.43967 -254.05156 252.50482 0 0 254 255 0.0905783 0.9751129
84.531555 -254.10924 255.79497 0 0 254 255 0.09425652 0.9729215
84.63661 -249.33606 256.59164 0 0 254 255 0.09707391 0.9765456
164.61174 -254.65771 255.94855 0 0 254 255 0.7508243 0.3997597
84.647446 -254.56938 255.26038 0 0 254 255 0.7513679 0.3238931
81.65984 -254.34712 251.90836 0 0 254 255 0.7545468 0.3210376
-81.13205 -252.57858 252.19673 0 0 254 255 0.7525263 0.1665523
-81.43967 -253.86601 252.38765 0 0 254 255 0.753761 0.1662596
81.43967 -254.05156 252.50482 0 0 254 255 0.7539159 0.3208273
81.13205 -252.57858 252.19673 0 0 254 255 0.7524882 0.3205359
81.13205 -252.57858 252.19673 0 0 254 255 0.009491191 0.9729215
80.59082 -252.13342 258.66663 0 0 254 255 0.7315953 0.3212049
-80.59082 -252.13342 258.97058 0 0 254 255 0.7314182 0.1689897
-250.24185 254.26173 7.7713456 0 0 254 255 0.01612272 0.006314127
-249.1123 252.47786 2.2572005 0 0 254 255 0.01016083 0.007503308
-249.68025 250.37715 2.8767254 0 0 254 255 0.009668921 0.005556592
-250.71532 251.77643 7.671095 0 0 254 255 0.01598744 0.00390625
-250.05424 250.07727 1.2960484 0 0 254 255 0.4872678 0.976541
-252.41255 250.19139 2.4892857 0 0 254 255 0.4896855 0.9762754
-249.68025 250.37715 2.8767254 0 0 254 255 0.4889058 0.9787853
-250.71532 251.77643 7.671095 0 0 254 255 0.4952477 0.9810506
-254.39787 251.77097 8.1864605 0 0 254 255 0.4958159 0.9775961
-247.80525 253.304 1.9178452 0 0 254 255 0.01029733 0.008965496
-249.02855 255.2811 7.7351446 0 0 254 255 0.01611165 0.007820587
-248.05725 246.89212 -0.16971214 0 0 254 255 0.00390625 0.008707246
-248.05725 246.89212 -0.16971214 0 0 254 255 0.4840089 0.9726611
-248.05725 -248.32753 -0.12741518 0 0 254 255 0.4837642 0.5029321
-254.86916 -249.67133 2.26583 0 0 254 255 0.4905968 0.5016962
-254.04274 248.72482 2.26603 0 0 254 255 0.4901319 0.9743508
-250.05424 250.07727 1.2960484 0 0 254 255 0.007754179 0.006563769
-255.18379 251.26338 8.091417 0 0 254 255 0.4957409 0.9767156
-250.91415 -251.4075 7.6708927 0 0 254 255 0.9861469 0.00390625
-250.65253 -250.68546 2.8765244 0 0 254 255 0.9914398 0.004491617
-250.03311 -252.1181 1.9077243 0 0 254 255 0.9920719 0.006204678
-250.27046 -253.39157 7.771142 0 0 254 255 0.9860239 0.00588002
-250.80202 -251.23242 1.2958472 0 0 254 255 0.4876343 0.4994986
-250.65253 -250.68546 2.8765244 0 0 254 255 0.4895883 0.4973797
-253.23906 -251.13788 2.4890847 0 0 254 255 0.4901553 0.4998343
-250.91415 -251.4075 7.6708927 0 0 254 255 0.4958048 0.494994
-255.40778 -251.83406 8.186257 0 0 254 255 0.4963951 0.4992367
-256.62167 -250.58955 8.091215 0 0 254 255 0.4963373 0.500871
-250.80202 -251.23242 1.2958472 0 0 254 255 0.993111 0.005497564
-249.02855 255.281 250.9681 0 0 254 255 0.2467685 0.00827068
-254.42589 250.25403 250.36478 0 0 254 255 0.7255234 0.9759237
-254.48561 246.9982 253.18268 0 0 254 255 0.7281932 0.9728603
-254.46251 249.64214 252.86577 0 0 254 255 0.7275574 0.9752657
-250.60188 251.51884 251.03215 0 0 254 255 0.2469985 0.00390625
-250.35164 249.93333 253.2911 0 0 254 255 0.2527193 0.00390625
-250.60156 252.79161 254.95654 0 0 254 255 0.2513752 0.00676422
-250.24185 254.26161 250.93188 0 0 254 255 0.2467993 0.006681826
-249.36378 250.63483 257.8593 0 0 254 255 0.2548173 0.008409643
-250.65201 250.2245 257.1481 0 0 254 255 0.254789 0.007187259
-250.70244 246.89757 257.82117 0 0 254 255 0.2583443 0.007261044
-254.12085 250.17213 253.55186 0 0 254 255 0.728037 0.9757896
-254.1619 246.93513 253.82826 0 0 254 255 0.7288757 0.9728087
-250.39116 246.9242 254.19711 0 0 254 255 0.7324568 0.9728345
-250.35164 249.93333 253.2911 0 0 254 255 0.7302998 0.9773883
-249.29451 253.61783 255.2959 0 0 254 255 0.2511219 0.008263301
-249.78058 -252.02847 258.6011 0 0 254 255 0.7315806 0.008837601
-249.22264 -252.0938 259.5196 0 0 254 255 0.7316519 0.009852156
-253.8867 251.3051 250.51677 0 0 254 255 0.7256918 0.9770341
-250.60188 251.51884 251.03215 0 0 254 255 0.7262858 0.9801319
-248.74702 -255.28117 252.2326 0 0 254 255 0.7543869 0.007444279
-167.30965 -254.26543 252.54866 0 0 254 255 0.7539098 0.08472507
-167.61176 -253.89072 253.05888 0 0 254 255 0.7533084 0.08443115
-248.74619 -254.91002 252.89548 0 0 254 255 0.7536663 0.007444279
-168.17749 -246.2666 259.5193 0 0 254 255 0.725995 0.08632376
-248.72604 -252.67145 253.25388 0 0 254 255 0.7522951 0.005479117
-249.43802 -251.89304 253.38492 0 0 254 255 0.7523431 0.004467022
-250.31737 -253.11201 252.68787 0 0 254 255 0.7538446 0.00489375
-249.64621 -253.93764 252.69249 0 0 254 255 0.7538225 0.005904615
-250.31737 -253.11201 252.68787 0 0 254 255 0.7284084 0.4956962
-249.43802 -251.89304 253.38492 0 0 254 255 0.7298484 0.4950542
-253.17809 -252.07404 253.0931 0 0 254 255 0.729027 0.4986021
-252.53699 -252.86627 252.46304 0 0 254 255 0.7281846 0.4978446
-167.51663 -252.07874 253.12796 0 0 254 255 0.7515892 0.08452707
-248.72604 -252.67145 253.25388 0 0 254 255 0.7515167 0.007471334
-250.59929 -253.50217 251.9883 0 0 254 255 0.7546316 0.005000739
-249.96017 -254.26215 252.1226 0 0 254 255 0.7544988 0.005942738
-249.27086 -252.83766 258.60526 0 0 254 255 0.7327673 0.009812803
-169.60059 -252.386 258.9831 0 0 254 255 0.7320048 0.08498947
-170.02783 -251.81389 259.5197 0 0 254 255 0.7312621 0.08458487
-249.43802 -251.89304 253.38492 0 0 254 255 0.7324568 0.4997458
-253.17809 -252.07404 253.0931 0 0 254 255 0.7288991 0.499581
-252.67235 -253.31516 251.90756 0 0 254 255 0.7275365 0.4978532
-250.59929 -253.50217 251.9883 0 0 254 255 0.7276213 0.4958794
-253.75304 -252.58414 252.572 0 0 254 255 0.7281624 0.499094
-248.74619 -254.91002 252.89548 0 0 254 255 0.753686 0.007182339
-249.78058 -252.02847 258.6011 0 0 254 255 0.7327009 0.00894828
-250.39116 246.9242 254.19711 0 0 254 255 0.2582607 0.00390625
-249.43802 -251.89304 253.38492 0 0 254 255 0.7314576 0.00390625
-248.72604 -252.67145 253.25388 0 0 254 255 0.7378388 0.01032561
-167.51663 -252.07874 253.12796 0 0 254 255 0.737556 0.08697799
-249.43802 -251.89304 253.38492 0 0 254 255 0.737754 0.009304911
-82.2332 -247.75754 257.95416 0 0 254 255 0.02681008 0.9729633
-81.08971 -252.74384 257.98737 0 0 254 255 0.02838664 0.9775516
-80.59082 -252.13342 258.97058 0 0 254 255 0.02719377 0.9774827
-81.64917 -247.24593 258.9705 0 0 254 255 0.02559753 0.9730174
-167.76962 -247.08258 257.86603 0 0 254 255 0.7277425 0.08670498
-82.2332 -247.75754 257.95416 0 0 254 255 0.7278605 0.1674353
-164.69559 -249.46515 256.26767 0 0 254 255 0.7304504 0.08961092
-84.63661 -249.33606 256.59164 0 0 254 255 0.7298466 0.1651713
-164.61403 -253.9969 256.3261 0 0 254 255 0.7500299 0.08727191
-84.531555 -254.072 255.91338 0 0 254 255 0.7505328 0.1632946
-84.63661 -249.33606 256.59164 0 0 254 255 0.745995 0.1632061
-164.69559 -249.46515 256.26767 0 0 254 255 0.7457319 0.08720796
-170.02783 -251.81389 259.5197 0 0 254 255 0.06044006 0.9794798
-169.60059 -252.386 258.9831 0 0 254 255 0.06003178 0.9787383
-167.76962 -247.08258 257.86603 0 0 254 255 0.06537388 0.9777963
-168.17749 -246.2666 259.5193 0 0 254 255 0.06598507 0.9794798
-167.51663 -252.07874 253.12796 0 0 254 255 0.0610242 0.9729215
-167.51663 -252.07874 253.12796 0 0 254 255 0.04445762 0.9773966
-167.61176 -253.89072 253.05888 0 0 254 255 0.04281466 0.9768838
-164.61403 -253.9969 256.3261 0 0 254 255 0.04422397 0.9729215
-164.69559 -249.46515 256.26767 0 0 254 255 0.04820348 0.9745448
-167.76962 -247.08258 257.86603 0 0 254 255 0.05099135 0.9773966
-84.63661 -249.33606 256.59164 0 0 254 255 0.02982669 0.9729215
-84.531555 -254.072 255.91338 0 0 254 255 0.1109622 0.9774458
-81.43967 -253.86601 252.38765 0 0 254 255 0.1065117 0.9774458
-81.13205 -252.57858 252.19673 0 0 254 255 0.1061292 0.9762357
-84.63661 -249.33606 256.59164 0 0 254 255 0.1113139 0.9729215
-81.87309 -254.41385 251.69348 0 0 254 255 0.7545984 0.1658427
-84.80918 -254.33931 255.45677 0 0 254 255 0.7510334 0.163029
-164.41512 -254.50957 256.0597 0 0 254 255 0.7505747 0.08747113
-81.13205 -252.57858 252.19673 0 0 254 255 0.03387999 0.9775516
4 0 1 2 3
3 4 5 6
4 6 5 7 8
4 9 10 11 12
4 0 3 13 14
4 3 15 16 13
4 6 10 9 4
4 6 8 17 10
3 15 3 2
4 18 19 20 21
4 22 23 24 25
3 26 27 28
4 29 28 27 30
4 31 32 33 34
4 32 31 35 36
4 37 11 10 17
4 25 33 32 22
4 22 32 36 38
4 12 11 27 26
4 27 11 37 30
3 38 23 22
3 39 40 41
4 42 43 44 45
4 46 47 48 49
4 50 51 52 53
4 44 1 0 45
4 49 54 55 46
4 7 56 57 8
4 58 45 0 14
4 45 58 59 42
3 60 33 61
4 62 49 63 64
4 65 66 67 68
4 69 70 71 72
4 73 74 75 76
4 25 24 77 78
4 79 80 81 54
4 51 50 82 83
4 29 30 84 85
4 33 25 78 61
4 30 37 86 84
3 68 67 87
4 52 57 56 53
5 17 39 41 86 37
4 17 8 57 39
3 54 81 55
4 88 43 47 46
4 89 88 46 55
4 90 81 80 91
4 81 90 92 55
4 39 57 52 40
4 40 52 51 41
4 51 83 86 41
4 86 69 72 84
4 72 71 85 84
4 65 68 78 77
4 68 87 61 78
4 93 94 95 96
4 97 98 99 100
4 62 101 102 103
4 101 104 105 102
4 106 107 108 109
4 110 111 112 113
3 113 112 114
4 115 116 117 118
3 103 54 49
3 112 119 114
3 95 94 120
4 121 122 123 124
4 125 126 127 60
4 128 129 130 131
3 120 94 132
4 133 134 97 100
3 103 79 54
4 135 136 137 138
3 139 140 141
4 142 141 140 143
4 13 144 145 14
4 144 13 16 146
4 147 148 149 150
4 135 145 144 136
4 136 144 146 151
4 147 150 140 139
4 140 150 152 143
3 151 137 136
4 153 154 155 156
3 157 158 159
4 159 158 160 161
4 162 152 150 149
4 156 155 31 34
4 155 163 35 31
4 159 149 148 157
4 159 161 162 149
3 163 155 154
4 58 14 145 164
3 165 166 167
4 168 169 170 171
4 172 173 174 63
4 175 176 177 178
4 164 179 59 58
4 135 138 168 171
4 49 48 172 63
4 63 174 180 181
4 182 183 142 143
4 164 145 135 171
4 171 170 179 164
4 184 185 186 187
3 64 63 188
4 189 190 191 192
4 193 194 195 196
4 197 198 187 186
4 199 153 156 200
4 201 202 203 181
4 204 177 176 205
4 206 161 160 207
4 200 156 34 184
4 208 162 161 206
3 192 209 189
4 175 178 183 182
5 152 162 208 166 165
4 182 143 152 165
3 181 210 201
4 173 169 211 174
4 174 211 212 180
4 202 201 213 214
4 201 210 215 213
4 175 182 165 167
4 167 166 176 175
4 208 205 176 166
4 208 206 196 195
4 207 193 196 206
4 200 192 191 199
4 184 209 192 200
4 216 217 218 219
4 220 221 64 188
4 222 223 221 220
4 224 225 226 227
4 228 229 230 231
3 229 232 230
4 233 234 235 236
3 188 63 181
3 237 233 236
3 216 238 217
4 239 240 241 242
4 243 244 245 185
3 238 246 217
3 188 181 203
4 134 133 62 64
4 61 73 76 60
4 127 243 34 33
4 60 76 108 125
4 125 108 107 126
4 126 107 130 127
4 127 130 129 243
3 34 243 185
4 243 129 225 244
4 245 244 225 224
4 245 224 186 185
3 184 34 185
3 62 103 49
3 33 60 127
4 42 59 48 47
4 172 179 170 173
4 59 179 172 48
3 43 42 47
3 173 170 169
